<svg xmlns="http://www.w3.org/2000/svg" xmlns:xlink="http://www.w3.org/1999/xlink"><symbol id="hexagon" viewBox="0 0 88 77"><g id="hexagon-white"><path d="M66,77l22,-38l-22,-38h-44l-22,38l22,38z" stroke-width="2"/></g></symbol><symbol id="icon-fb" viewBox="0 0 10 20"><path d="M 9.16 0.47C 9.16 1.58 9.16 3.56 9.16 3.56 9.16 3.56 6.89 3.33 6.32 4.21 6.01 4.68 6.19 6.08 6.16 7.08 7.16 7.08 8.19 7.08 9.18 7.08 8.92 8.25 8.74 9.05 8.55 10.06 7.69 10.06 6.15 10.06 6.15 10.06 6.15 10.06 6.15 19.65 6.15 19.65 6.15 19.65 3.31 19.65 1.97 19.65 1.98 16.69 1.97 13.24 1.97 10.1 1.33 10.1 0.85 10.1 0.2 10.1 0.2 8.99 0.2 8.19 0.2 7.08 0.83 7.08 1.33 7.08 1.96 7.08 2.05 4.87 2.08 2.69 3.17 1.58 4.4 0.32 5.58 0.47 9.16 0.47Z"/></symbol><symbol id="icon-google" viewBox="0 0 20 17"><path d="M 16.36 4.66C 16.36 5.69 16.34 6.63 16.34 7.66 16.02 7.66 15.52 7.66 15.2 7.66 15.2 6.64 15.18 5.68 15.18 4.66 14.19 4.62 13.19 4.67 12.17 4.66 12.17 4.34 12.17 3.8 12.17 3.47 13.2 3.47 14.13 3.47 15.16 3.47 15.16 2.48 15.18 1.54 15.18 0.55 15.18 0.52 15.16 0.5 15.18 0.49 15.49 0.49 16.02 0.49 16.34 0.49 16.34 1.49 16.32 2.47 16.32 3.47 17.3 3.51 18.32 3.46 19.34 3.47 19.34 3.8 19.34 4.34 19.34 4.66 18.32 4.66 17.37 4.66 16.36 4.66ZM 8.59 1.24C 9.45 1.95 10.21 2.86 10.15 4.34 10.08 5.83 9.14 6.43 8.27 7.13 8.07 7.29 7.77 7.63 7.69 7.83 7.38 8.65 8.22 9.12 8.65 9.44 9.04 9.73 9.38 9.99 9.68 10.25 10.32 10.79 10.92 11.49 10.92 12.7 10.91 14.02 10.15 14.94 9.3 15.55 8.45 16.16 7.23 16.58 5.98 16.7 4.53 16.83 3.16 16.66 2.1 16.19 1.15 15.77 0.17 14.98 0.17 13.68 0.17 13.01 0.46 12.34 0.83 11.93 2.6 9.96 3.86 10.27 6.17 10.1 6.05 9.85 5.71 9.56 5.59 9.19 5.44 8.73 5.53 8.2 5.74 7.83 4.26 8.02 3.07 7.59 2.29 6.83 1.62 6.19 1.1 5.09 1.37 3.83 1.6 2.75 2.24 1.97 3.04 1.43 3.88 0.87 4.9 0.47 6.23 0.47 7.87 0.47 9.62 0.47 11.37 0.47 11.37 0.47 9.94 1.24 9.94 1.24 9.52 1.24 9.11 1.24 8.59 1.24ZM 3.25 11.41C 2.9 11.62 2.5 11.93 2.27 12.53 2.12 12.93 2.12 13.46 2.23 13.86 2.56 15.01 3.92 15.67 5.35 15.8 6.89 15.93 8.45 15.69 9.12 14.6 9.48 14 9.49 13.14 9.13 12.55 8.71 11.86 8.14 11.56 7.52 11.13 7.34 11 7.15 10.78 6.9 10.71 6.73 10.67 6.38 10.7 6.19 10.71 4.97 10.77 3.99 10.95 3.25 11.41ZM 6.36 1.43C 6.05 1.25 5.56 1.16 5.1 1.21 4.21 1.3 3.62 1.87 3.41 2.48 3.12 3.35 3.35 4.52 3.66 5.28 4 6.1 4.52 6.77 5.16 7.08 6.19 7.57 7.55 7.07 7.97 6.19 8.09 5.95 8.14 5.59 8.16 5.33 8.27 3.64 7.37 2.01 6.36 1.43Z"/></symbol><symbol id="icon-twitter" viewBox="0 0 20 17"><path d="M 19.95 2.12C 19.86 2.84 18.81 3.57 18.18 4.12 18.81 13.33 8.36 19.08 0.76 14.41 2.89 14.43 5.29 13.84 6.56 12.64 4.72 12.34 3.41 11.51 2.9 9.87 3.44 9.82 4.2 9.99 4.56 9.76 2.88 9.12 1.55 8.13 1.46 5.89 2.06 5.95 2.38 6.3 3.13 6.22 2.04 5.52 0.79 2.87 1.91 0.91 3.88 3.1 6.35 4.8 10.21 5.11 9.25 1.04 14.65-1.48 17.07 1.46 18.02 1.26 18.81 0.91 19.62 0.57 19.29 1.5 18.62 2.08 17.96 2.68 18.67 2.54 19.43 2.45 19.95 2.12Z"/></symbol><symbol id="icon-pinterest" viewBox="0 0 15.502 15.502"><path d="M8.112,0c-4.23,0-6.363,3.033-6.363,5.562c0,1.533,0.581,2.894,1.823,3.401c0.205,0.084,0.387,0.004,0.446-0.221C4.059,8.585,4.156,8.189,4.2,8.025c0.061-0.221,0.037-0.3-0.127-0.495C3.714,7.108,3.485,6.558,3.485,5.783c0-2.25,1.683-4.264,4.384-4.264c2.392,0,3.706,1.463,3.706,3.412c0,2.568-1.137,4.734-2.824,4.734c-0.932,0-1.629-0.77-1.405-1.715c0.268-1.13,0.786-2.347,0.786-3.16c0-0.729-0.392-1.336-1.2-1.336c-0.952,0-1.718,0.984-1.718,2.304c0,0.841,0.286,1.409,0.286,1.409s-0.976,4.129-1.146,4.852c-0.34,1.44-0.051,3.206-0.025,3.385c0.013,0.104,0.149,0.131,0.21,0.051c0.088-0.115,1.223-1.517,1.607-2.915c0.111-0.396,0.627-2.445,0.627-2.445c0.311,0.589,1.213,1.108,2.175,1.108c2.863,0,4.804-2.608,4.804-6.103C13.749,2.46,11.512,0,8.112,0z"/></symbol><use xlink:href="#icon-twitter" width="100%" height="100%" x="0" y="0" fill="rgb(60, 60, 60)"></use></svg>
