<svg xmlns="http://www.w3.org/2000/svg" viewBox="0 0 524 669" width="524" height="669">
	<defs>
		<linearGradient id="grd1" gradientUnits="userSpaceOnUse"  x1="262.057" y1="564.607" x2="262.057" y2="77">
			<stop offset="0" stop-color="#c7c7c7"  />
			<stop offset="1" stop-color="#e7e7e7"  />
		</linearGradient>
		<linearGradient id="grd2" gradientUnits="userSpaceOnUse"  x1="261.852" y1="561.198" x2="261.852" y2="79.557">
			<stop offset="0" stop-color="#bfbfbf"  />
			<stop offset="1" stop-color="#cdcece"  />
		</linearGradient>
		<filter id="flt1"> <feColorMatrix in="SourceGraphic" type="matrix" values="0.52 0 0 0 0   0 0.52 0 0 0   0 0 0.52 0 0   0 0 0 1 0" /> </filter>
	</defs>
	<style>
		tspan { white-space:pre }
		.shp0 { fill: #4c4c4c;stroke: #252525 } 
		.shp1 { fill: url(#grd1) } 
		.shp2 { fill: #d7d7d7;stroke: url(#grd2) } 
		.shp3 { opacity: 0.09;fill-opacity: 0.278;fill: #ffffff } 
		.shp4 { fill: #d7d7d7 } 
		.shp5 { fill: #343541 } 
		.shp6 { filter: url(#flt1);fill: #1d1e1f } 
		.shp7 { fill: #252525 } 
	</style>
	<path id="Shape 2 copy 9" class="shp0" d="M380.75,668.99l118.25,-205.5l-118.25,-205.49h-236.5l-118.26,205.49l118.26,205.5z" />
	<g id="mockup">
		<g id="Body">
			<path id="Base" class="shp1" d="M76.92,106.02v429.56c0,16.03 13.04,29.02 29.13,29.02h312.02c16.09,0 29.13,-12.99 29.13,-29.02v-429.56c0,-16.03 -13.04,-29.02 -29.13,-29.02h-312.02c-16.09,0 -29.13,12.99 -29.13,29.02z" />
			<path id="Inner Panel" class="shp2" d="M79.49,106.82v427.38c0,14.98 12.72,27 27.75,27h310.06c15.03,0 26.92,-12.01 26.92,-27v-427.38c0,-14.98 -12.31,-27.26 -27.34,-27.26h-310.06c-15.03,0 -27.33,12.28 -27.33,27.26z" />
		</g>
		<path id="Gloss" class="shp3" d="M443.57,556.85v-450.78c0,-14.64 -11.9,-26.51 -26.59,-26.51h-177.99z" />
		<g id="Camera">
			<path id="Shape" class="shp4" d="M262.06,101.29c-2.01,0 -3.63,1.62 -3.63,3.62c0,2 1.63,3.62 3.63,3.62c2.01,0 3.63,-1.62 3.63,-3.62c0,-2 -1.63,-3.62 -3.63,-3.62z" />
			<path id="Shape" class="shp5" d="M262.12,103.15c-0.97,0 -1.76,0.79 -1.76,1.76c0,0.97 0.79,1.76 1.76,1.76c0.97,0 1.76,-0.79 1.76,-1.76c0,-0.97 -0.79,-1.76 -1.76,-1.76z" />
			<path id="Shape" class="shp6" d="M262.06,104.27c-0.35,0 -0.64,0.29 -0.64,0.64c0,0.35 0.29,0.64 0.64,0.64c0.35,0 0.64,-0.29 0.64,-0.64c0,-0.35 -0.29,-0.64 -0.64,-0.64z" />
		</g>
	</g>
	<path id="Shape 2 copy 10" class="shp7" d="M25.99,463.49l118.26,205.5h236.5l118.25,-205.5" />
</svg>