<svg xmlns="http://www.w3.org/2000/svg" width="524" height="669"><defs><linearGradient id="grd1" gradientUnits="userSpaceOnUse" x1="262.057" y1="564.607" x2="262.057" y2="77"><stop offset="0" stop-color="#c7c7c7"/><stop offset="1" stop-color="#e7e7e7"/></linearGradient><linearGradient id="grd2" gradientUnits="userSpaceOnUse" x1="261.852" y1="561.198" x2="261.852" y2="79.557"><stop offset="0" stop-color="#bfbfbf"/><stop offset="1" stop-color="#cdcece"/></linearGradient><filter id="flt1"><feColorMatrix in="SourceGraphic" values="0.52 0 0 0 0 0 0.52 0 0 0 0 0 0.52 0 0 0 0 0 1 0"/></filter></defs><style/><path id="Shape 2 copy 9" d="M380.75 668.99L499 463.49 380.75 258h-236.5L25.99 463.49l118.26 205.5z" fill="#4c4c4c" stroke="#252525"/><g id="mockup"><g id="Body"><path id="Base" d="M76.92 106.02v429.56c0 16.03 13.04 29.02 29.13 29.02h312.02c16.09 0 29.13-12.99 29.13-29.02V106.02c0-16.03-13.04-29.02-29.13-29.02H106.05c-16.09 0-29.13 12.99-29.13 29.02z" fill="url(#grd1)"/><path id="Inner Panel" d="M79.49 106.82V534.2c0 14.98 12.72 27 27.75 27H417.3c15.03 0 26.92-12.01 26.92-27V106.82c0-14.98-12.31-27.26-27.34-27.26H106.82c-15.03 0-27.33 12.28-27.33 27.26z" fill="#d7d7d7" stroke="url(#grd2)"/></g><path id="Gloss" d="M443.57 556.85V106.07c0-14.64-11.9-26.51-26.59-26.51H238.99z" opacity=".09" fill-opacity=".278" fill="#fff"/><g id="Camera"><path id="Shape" d="M262.06 101.29c-2.01 0-3.63 1.62-3.63 3.62s1.63 3.62 3.63 3.62c2.01 0 3.63-1.62 3.63-3.62s-1.63-3.62-3.63-3.62z" fill="#d7d7d7"/><path id="Shape" d="M262.12 103.15c-.97 0-1.76.79-1.76 1.76s.79 1.76 1.76 1.76 1.76-.79 1.76-1.76-.79-1.76-1.76-1.76z" fill="#343541"/><path id="Shape" d="M262.06 104.27c-.35 0-.64.29-.64.64 0 .35.29.64.64.64.35 0 .64-.29.64-.64 0-.35-.29-.64-.64-.64z" filter="url(#flt1)" fill="#1d1e1f"/></g></g><path id="Shape 2 copy 10" d="M25.99 463.49l118.26 205.5h236.5L499 463.49" fill="#252525"/></svg>