<svg xmlns="http://www.w3.org/2000/svg" style="display: none;"><symbol id="screen" viewBox="0 0 32 32"><title>screen</title><path d="M29,4H3C1.346,4,0,5.346,0,7v13c0,1.654,1.346,3,3,3h26c1.654,0,3-1.346,3-3V7C32,5.346,30.654,4,29,4z M30,20 c0,0.551-0.448,1-1,1H3c-0.552,0-1-0.449-1-1V7c0-0.551,0.448-1,1-1h26c0.552,0,1,0.449,1,1V20z M30.5,25H20c0,0.552-0.447,1-1,1 h-6c-0.553,0-1-0.448-1-1H1.5C0.672,25,0,25.672,0,26.5S0.672,28,1.5,28h29c0.828,0,1.5-0.672,1.5-1.5S31.328,25,30.5,25z"/></symbol><symbol id="computer-tablet" viewBox="0 0 401.991 401.991"><title>computer-tablet</title><path d="M352.029,13.418C343.077,4.471,332.332,0,319.766,0H82.223C69.66,0,58.906,4.471,49.959,13.418 c-8.945,8.949-13.418,19.7-13.418,32.264v310.633c0,12.566,4.473,23.309,13.418,32.261c8.947,8.949,19.701,13.415,32.264,13.415 h237.542c12.566,0,23.312-4.466,32.264-13.415c8.946-8.952,13.422-19.701,13.422-32.261V45.683 C365.451,33.118,360.965,22.364,352.029,13.418z M213.843,378.299c-3.613,3.614-7.898,5.421-12.849,5.421 c-4.952,0-9.233-1.807-12.85-5.421c-3.617-3.62-5.424-7.904-5.424-12.847c0-4.948,1.807-9.239,5.424-12.847 c3.621-3.62,7.902-5.434,12.85-5.434c4.95,0,9.235,1.813,12.849,5.434c3.614,3.607,5.428,7.898,5.428,12.847 C219.271,370.395,217.457,374.676,213.843,378.299z M328.902,319.767c0,2.478-0.91,4.613-2.71,6.427 c-1.813,1.814-3.949,2.711-6.427,2.711H82.223c-2.474,0-4.615-0.904-6.423-2.711s-2.712-3.949-2.712-6.427V45.683 c0-2.475,0.903-4.617,2.712-6.424c1.809-1.809,3.949-2.712,6.423-2.712h237.542c2.478,0,4.613,0.9,6.427,2.712 c1.807,1.807,2.71,3.949,2.71,6.424V319.767z"/></symbol><symbol id="tablet" viewBox="0 0 33.994 33.994"><title>tablet</title><path d="M27.125,0H6.867C5.59,0,4.562,1.033,4.562,2.309v29.377c0,1.272,1.028,2.308,2.305,2.308h20.258 c1.273,0,2.306-1.035,2.306-2.308V2.309C29.433,1.033,28.399,0,27.125,0z M16.997,33.129c-0.758,0-1.371-0.613-1.371-1.37 c0-0.758,0.613-1.372,1.371-1.372c0.756,0,1.371,0.614,1.371,1.372C18.368,32.516,17.753,33.129,16.997,33.129z M27.098,29.186 H6.896V2.774h20.202V29.186z"/></symbol><symbol id="code" viewBox="0 0 522.468 522.469" width="30" height="30"><title>code</title><path d="M325.762,70.513l-17.706-4.854c-2.279-0.76-4.524-0.521-6.707,0.715c-2.19,1.237-3.669,3.094-4.429,5.568L190.426,440.53 c-0.76,2.475-0.522,4.809,0.715,6.995c1.237,2.19,3.09,3.665,5.568,4.425l17.701,4.856c2.284,0.766,4.521,0.526,6.71-0.712 c2.19-1.243,3.666-3.094,4.425-5.564L332.042,81.936c0.759-2.474,0.523-4.808-0.716-6.999 C330.088,72.747,328.237,71.272,325.762,70.513z"/><path d="M166.167,142.465c0-2.474-0.953-4.665-2.856-6.567l-14.277-14.276c-1.903-1.903-4.093-2.857-6.567-2.857 s-4.665,0.955-6.567,2.857L2.856,254.666C0.95,256.569,0,258.759,0,261.233c0,2.474,0.953,4.664,2.856,6.566l133.043,133.044 c1.902,1.906,4.089,2.854,6.567,2.854s4.665-0.951,6.567-2.854l14.277-14.268c1.903-1.902,2.856-4.093,2.856-6.57 c0-2.471-0.953-4.661-2.856-6.563L51.107,261.233l112.204-112.201C165.217,147.13,166.167,144.939,166.167,142.465z"/><path d="M519.614,254.663L386.567,121.619c-1.902-1.902-4.093-2.857-6.563-2.857c-2.478,0-4.661,0.955-6.57,2.857l-14.271,14.275 c-1.902,1.903-2.851,4.09-2.851,6.567s0.948,4.665,2.851,6.567l112.206,112.204L359.163,373.442 c-1.902,1.902-2.851,4.093-2.851,6.563c0,2.478,0.948,4.668,2.851,6.57l14.271,14.268c1.909,1.906,4.093,2.854,6.57,2.854 c2.471,0,4.661-0.951,6.563-2.854L519.614,267.8c1.903-1.902,2.854-4.096,2.854-6.57 C522.468,258.755,521.517,256.565,519.614,254.663z"/></symbol><symbol id="html5" viewBox="0 0 299.215 299.215"  width="30" height="30"><title>html5</title><path id="XMLID_107_" d="M22.347,0c-2.75,0-4.799,2.241-4.555,4.98l23.184,260.047c0.244,2.739,2.611,5.582,5.262,6.318 l98.381,27.316c2.65,0.736,6.986,0.736,9.637,0.002l98.68-27.361c2.65-0.735,5.02-3.578,5.264-6.316L281.422,4.98 c0.246-2.739-1.805-4.98-4.555-4.98H22.347z M232.049,59.641c-0.219,2.443-0.598,6.684-0.842,9.423l-0.611,6.823 c-0.246,2.738-0.596,6.654-0.781,8.701c-0.184,2.048-0.359,3.723-0.391,3.723c-0.031,0-2.307,0-5.057,0h-69.76 c-2.75,0-5.023,0-5.053,0s-2.305,0-5.055,0h-36.74c-2.75,0-4.799,2.241-4.555,4.98l2.143,23.955c0.244,2.738,2.695,4.98,5.445,4.98 H144.5c2.75,0,5.025,0,5.055,0s2.303,0,5.053,0h57.939c2.75,0,7.006,0,9.457,0c2.449,0,4.273,1.999,4.051,4.442 c-0.223,2.443-0.604,6.685-0.848,9.423l-6.891,77.228c-0.246,2.739-0.557,6.238-0.691,7.776c-0.137,1.537-2.416,3.396-5.066,4.131 l-58.133,16.119c-2.65,0.734-4.852,1.342-4.893,1.351c-0.041,0.009-2.242-0.586-4.893-1.321l-58.195-16.148 c-2.65-0.735-5.018-3.578-5.262-6.317l-3.746-42.045c-0.244-2.739,1.807-4.98,4.557-4.98h5.311c2.75,0,7.25,0,10,0h7.92 c2.75,0,5.199,2.241,5.445,4.98l1.469,16.459c0.244,2.739,2.615,5.566,5.271,6.283l27.221,7.351 c2.654,0.717,4.836,1.304,4.848,1.304s2.193-0.588,4.848-1.305l27.27-7.369c2.654-0.717,5.027-3.545,5.273-6.283l2.957-32.976 c0.246-2.739-1.803-4.98-4.553-4.98h-30.666c-2.75,0-5.023,0-5.053,0s-2.305,0-5.055,0H80.511c-2.75,0-5.199-2.242-5.443-4.98 l-7.256-81.306c-0.244-2.739-0.623-6.979-0.842-9.423c-0.217-2.443,1.854-4.442,4.604-4.442H144.5c2.75,0,5.025,0,5.055,0 s2.303,0,5.053,0h72.838C230.195,55.198,232.267,57.197,232.049,59.641z"/></symbol><symbol id="edit-draw-pencil" viewBox="0 0 268.725 268.725"  width="30" height="30"><title>edit-draw-pencil</title><path style="fill-rule:evenodd;clip-rule:evenodd;" d="M161.359,56.337c-7.041-7.049-18.458-7.049-25.498,0l-6.374,6.381 l-89.243,89.337l0.023,0.023l-2.812,2.82c0,0-8.968,9.032-29.216,74.399c-0.142,0.457-0.283,0.911-0.426,1.374 c-0.361,1.171-0.726,2.361-1.094,3.567c-0.326,1.066-0.656,2.154-0.987,3.249c-0.279,0.923-0.556,1.836-0.839,2.779 c-0.642,2.14-1.292,4.318-1.955,6.567c-1.455,4.937-5.009,16.07-0.99,20.1c3.87,3.882,15.12,0.467,20.043-0.993 c2.232-0.662,4.395-1.311,6.519-1.952c0.981-0.296,1.932-0.586,2.891-0.878c1.031-0.314,2.057-0.626,3.062-0.935 c1.269-0.39,2.52-0.775,3.75-1.157c0.367-0.114,0.727-0.227,1.091-0.34c62.192-19.365,73.357-28.453,74.285-29.284 c0.007-0.005,0.007-0.005,0.012-0.01c0.039-0.036,0.066-0.06,0.066-0.06l2.879-2.886l0.193,0.193l89.245-89.337l-0.001-0.001 l6.374-6.381c7.041-7.048,7.041-18.476,0-25.525L161.359,56.337z M103.399,219.782c-0.078,0.053-0.184,0.122-0.296,0.193 c-0.062,0.04-0.137,0.087-0.211,0.133c-0.075,0.047-0.157,0.098-0.244,0.151c-0.077,0.047-0.157,0.095-0.243,0.147 c-2.969,1.777-11.682,6.362-32.828,14.017c-2.471,0.894-5.162,1.842-7.981,2.819l-30.06-30.091c0.98-2.84,1.929-5.551,2.826-8.041 c7.638-21.235,12.219-29.974,13.986-32.939c0.043-0.071,0.082-0.136,0.121-0.2c0.062-0.102,0.12-0.197,0.174-0.284 c0.043-0.069,0.088-0.141,0.126-0.2c0.071-0.111,0.14-0.217,0.193-0.296l2.2-2.206l54.485,54.542L103.399,219.782z M263.351,56.337 l-50.997-51.05c-7.041-7.048-18.456-7.048-25.498,0l-12.748,12.763c-7.041,7.048-7.041,18.476,0,25.524l50.996,51.05 c7.04,7.048,18.457,7.048,25.498,0l12.749-12.762C270.392,74.813,270.392,63.385,263.351,56.337z"/></symbol></symbol><symbol id="check" width="27" height="23" viewBox="0 0 27 23"><path d="M7.285 7.486l-2.829 2.829 7.783 7.783L26.171 4.166l-2.828-2.829-11.104 11.102z"/></symbol><symbol id="wordpress" width="479" height="479" viewBox="0 0 478.165 478.165"><path d="M0,239.082c0,132.093,106.989,239.082,239.082,239.082s239.082-106.989,239.082-239.082 S371.175,0,239.082,0S0,106.989,0,239.082z M18.449,239.082c0-31.957,6.814-62.361,19.107-89.855L142.712,437.6 C69.155,401.997,18.449,326.407,18.449,239.082z M239.082,459.596c-21.697,0-42.537-2.949-62.341-8.886l66.266-192.382   l67.879,185.827c0.458,1.235,0.996,2.152,1.514,3.128C289.449,455.292,264.764,459.596,239.082,459.596z M417.418,234.898    c12.612-31.519,16.815-56.583,16.815-78.957c0-8.149-0.518-15.68-1.454-22.812c17.254,31.519,26.837,67.62,26.837,105.953    c0,81.348-44.011,152.335-109.48,190.608L417.418,234.898z M369.84,167.119c8.368,14.584,18.21,33.631,18.21,60.807    c0,18.907-5.618,42.796-16.835,71.386l-21.976,73.378l-79.774-237.05c13.409-0.677,25.223-2.072,25.223-2.072    c12.014-1.395,10.599-18.888-1.375-18.21c0,0-35.623,2.809-58.735,2.809c-21.717,0-58.117-2.809-58.117-2.809    c-11.894-0.697-13.289,17.473-1.534,18.21c0,0,11.336,1.375,23.251,2.072l34.348,94.159l-48.295,144.764l-80.32-238.923    c13.309-0.717,25.203-2.092,25.203-2.092c11.934-1.395,10.52-18.888-1.395-18.23c0,0-35.703,2.809-58.834,2.809    c-4.144,0-9.045-0.04-14.166-0.239c39.409-59.95,107.328-99.438,184.372-99.438c57.44,0,109.739,21.936,148.968,57.918    c-0.916-0.06-1.873-0.239-2.809-0.239c-21.836,0-36.978,18.907-36.978,39.19C348.243,133.547,358.663,148.928,369.84,167.119z"/></symbol><symbol id="heart" width="15" height="13" viewBox="0 0 15 13"><path d="M10.799 0c-1.35 0-2.551.65-3.3 1.661A4.097 4.097 0 0 0 4.199 0C1.875 0 0 1.806 0 4.044 0 7.223 7.499 13 7.499 13s7.499-5.777 7.499-8.956C14.998 1.806 13.123 0 10.799 0z"/></symbol><symbol id="flame" width="512" height="512" viewBox="0 0 511.62 511.62"><g><path d="M156.45,351.309c8.564,12.272,19.368,23.935,32.404,34.972c13.039,11.036,26.215,20.553,39.543,28.547  c13.326,7.998,28.553,15.893,45.682,23.702l-0.287-0.287l1.143,0.287c-12.754-24.365-19.128-45.679-19.128-63.953 c0-9.709,2.334-18.894,7-27.549c4.661-8.664,10.749-16.426,18.268-23.271c7.522-6.851,15.848-13.702,24.982-20.554 c9.133-6.857,18.267-14.232,27.411-22.127c9.134-7.898,17.463-16.276,24.981-25.126c7.519-8.852,13.606-19.558,18.274-32.12 c4.661-12.563,6.995-26.269,6.995-41.112c0-18.654-2.621-36.164-7.851-52.534c-5.235-16.368-12.135-30.693-20.697-42.968 c-8.562-12.275-19.362-23.935-32.408-34.97c-13.038-11.04-26.214-20.557-39.539-28.549C269.897,15.703,254.671,7.804,237.543,0 l0.284,0.288L236.971,0c12.56,24.741,18.839,46.061,18.839,63.95c0,9.707-2.331,18.892-6.995,27.55 c-4.665,8.66-10.754,16.415-18.271,23.269c-7.52,6.851-15.846,13.703-24.982,20.557c-9.139,6.851-18.276,14.228-27.411,22.126 c-9.136,7.898-17.462,16.274-24.982,25.122c-7.517,8.852-13.606,19.558-18.271,32.12c-4.661,12.563-6.995,26.269-6.995,41.112 c0,18.654,2.611,36.165,7.846,52.533C140.985,324.708,147.886,339.037,156.45,351.309z"/><path d="M454.092,477.788c-1.811-1.803-3.949-2.703-6.42-2.703H63.95c-2.474,0-4.615,0.9-6.423,2.703 c-1.809,1.808-2.712,3.949-2.712,6.424v18.271c0,2.479,0.903,4.617,2.712,6.427c1.809,1.811,3.949,2.711,6.423,2.711h383.722    c2.471,0,4.609-0.9,6.42-2.711c1.807-1.81,2.714-3.948,2.714-6.427v-18.271C456.806,481.737,455.905,479.596,454.092,477.788z"/></g></symbol><symbol id="tick" width="61" height="61" viewBox="0 0 60.015 60.015"><g><path d="M59.136,7.372c-1.133-1.133-3.109-1.133-4.242,0L27,35.265L15.344,23.609c-1.133-1.133-3.109-1.133-4.242,0    c-0.566,0.566-0.879,1.32-0.879,2.121s0.313,1.555,0.879,2.121l13.777,13.777c0.566,0.566,1.32,0.879,2.121,0.879    s1.555-0.313,2.121-0.879l30.015-30.015c0.566-0.566,0.879-1.32,0.879-2.121S59.702,7.938,59.136,7.372z"/><path d="M27,45.007c-1.469,0-2.85-0.572-3.889-1.611L9.334,29.619c-1.039-1.039-1.611-2.42-1.611-3.889s0.572-2.85,1.611-3.889    c1.005-1.006,2.423-1.582,3.889-1.582s2.884,0.576,3.889,1.582L27,31.73l26-26V3.507H0v53h53V21.285L30.889,43.396    C29.85,44.435,28.469,45.007,27,45.007z"/></g></symbol></svg>
